<svg xmlns="http://www.w3.org/2000/svg" viewBox="0 0 300 620" width="300" height="620" font-family="Roboto,'Noto Sans','Segoe UI',Arial,sans-serif"><defs><clipPath id="scr"><rect x="9" y="9" width="282" height="602" rx="31"/></clipPath><linearGradient id="top" x1="0" y1="0" x2="1" y2="1"><stop offset="0" stop-color="#802244"/><stop offset="1" stop-color="#3D0C2A"/></linearGradient></defs><rect width="300" height="620" rx="40" fill="#141016"/><g clip-path="url(#scr)"><g transform="translate(9 9)"><rect width="282" height="602" fill="#fff"/><rect width="282" height="602" fill="#F4F1F4"/><rect width="282" height="74" fill="url(#top)"/><text x="22" y="17" font-size="10.5" fill="#fff" font-weight="600">13:05</text><g fill="#fff"><path d="M226 15 l6-6 v6z" opacity=".9"/><rect x="238" y="9" width="17" height="8" rx="2" opacity=".9"/><rect x="255.5" y="11" width="1.6" height="4" rx=".6"/></g><path d="M28 45 l-8 8 8 8 M20 53 h16" stroke="#fff" stroke-width="2.2" fill="none" stroke-linecap="round" stroke-linejoin="round"/><text x="52" y="58" font-size="15.5" fill="#fff" font-weight="700">Слова</text><g fill="#fff"><circle cx="258" cy="46" r="1.9"/><circle cx="258" cy="53" r="1.9"/><circle cx="258" cy="60" r="1.9"/></g><rect x="14" y="88" width="254" height="32" rx="10" fill="#F1ECF1"/><rect x="17" y="91" width="82" height="26" rx="8" fill="#fff"/><text x="58" y="108.5" font-size="11.5" fill="#1A1420" font-weight="700" text-anchor="middle">Слова</text><text x="141" y="108.5" font-size="11.5" fill="#5D5566" text-anchor="middle">Фразы</text><text x="224" y="108.5" font-size="11.5" fill="#5D5566" text-anchor="middle">Знаю</text><rect x="14" y="132" width="254" height="62" rx="15" fill="url(#top)"/><text x="28" y="158" font-size="13" fill="#fff" font-weight="700">Повторение на слух</text><text x="28" y="175" font-size="10.5" fill="rgba(255,255,255,.75)">сегодня — 8 слов</text><rect x="184" y="148" width="72" height="30" rx="15" fill="#E0B878"/><text x="220" y="167.5" font-size="11" fill="#3D0C2A" font-weight="700" text-anchor="middle">▶ Начать</text><rect x="14" y="206" width="254" height="46" rx="12" fill="#fff" stroke="#F0EAF0"/><text x="28" y="226" font-size="13" fill="#1A1420" font-weight="700">obrigado</text><text x="28" y="242" font-size="11" fill="#5D5566">спасибо</text><text x="222" y="234" font-size="11" fill="#8A8092" text-anchor="end">×14</text><g transform="translate(232 219)" stroke="#802244" stroke-width="1.7" fill="none" stroke-linecap="round" stroke-linejoin="round"><path d="M2 7h4l5-4v14l-5-4H2z"/><path d="M14 6.5a4.5 4.5 0 0 1 0 7"/></g><rect x="14" y="258" width="254" height="46" rx="12" fill="#fff" stroke="#F0EAF0"/><text x="28" y="278" font-size="13" fill="#1A1420" font-weight="700">quanto custa</text><text x="28" y="294" font-size="11" fill="#5D5566">сколько стоит</text><text x="222" y="286" font-size="11" fill="#8A8092" text-anchor="end">×9</text><g transform="translate(232 271)" stroke="#802244" stroke-width="1.7" fill="none" stroke-linecap="round" stroke-linejoin="round"><path d="M2 7h4l5-4v14l-5-4H2z"/><path d="M14 6.5a4.5 4.5 0 0 1 0 7"/></g><rect x="14" y="310" width="254" height="46" rx="12" fill="#fff" stroke="#F0EAF0"/><text x="28" y="330" font-size="13" fill="#1A1420" font-weight="700">farmácia</text><text x="28" y="346" font-size="11" fill="#5D5566">аптека</text><text x="222" y="338" font-size="11" fill="#8A8092" text-anchor="end">×6</text><g transform="translate(232 323)" stroke="#802244" stroke-width="1.7" fill="none" stroke-linecap="round" stroke-linejoin="round"><path d="M2 7h4l5-4v14l-5-4H2z"/><path d="M14 6.5a4.5 4.5 0 0 1 0 7"/></g><rect x="14" y="362" width="254" height="46" rx="12" fill="#fff" stroke="#F0EAF0"/><text x="28" y="382" font-size="13" fill="#1A1420" font-weight="700">amanhã</text><text x="28" y="398" font-size="11" fill="#5D5566">завтра</text><text x="222" y="390" font-size="11" fill="#8A8092" text-anchor="end">×5</text><g transform="translate(232 375)" stroke="#802244" stroke-width="1.7" fill="none" stroke-linecap="round" stroke-linejoin="round"><path d="M2 7h4l5-4v14l-5-4H2z"/><path d="M14 6.5a4.5 4.5 0 0 1 0 7"/></g><rect x="14" y="414" width="254" height="46" rx="12" fill="#fff" stroke="#F0EAF0"/><text x="28" y="434" font-size="13" fill="#1A1420" font-weight="700">troco</text><text x="28" y="450" font-size="11" fill="#5D5566">сдача</text><text x="222" y="442" font-size="11" fill="#8A8092" text-anchor="end">×4</text><g transform="translate(232 427)" stroke="#802244" stroke-width="1.7" fill="none" stroke-linecap="round" stroke-linejoin="round"><path d="M2 7h4l5-4v14l-5-4H2z"/><path d="M14 6.5a4.5 4.5 0 0 1 0 7"/></g><rect x="14" y="466" width="254" height="46" rx="12" fill="#fff" stroke="#F0EAF0"/><text x="28" y="486" font-size="13" fill="#1A1420" font-weight="700">devagar</text><text x="28" y="502" font-size="11" fill="#5D5566">медленно</text><text x="222" y="494" font-size="11" fill="#8A8092" text-anchor="end">×3</text><g transform="translate(232 479)" stroke="#802244" stroke-width="1.7" fill="none" stroke-linecap="round" stroke-linejoin="round"><path d="M2 7h4l5-4v14l-5-4H2z"/><path d="M14 6.5a4.5 4.5 0 0 1 0 7"/></g><rect y="530" width="282" height="72" fill="#fff"/><path d="M0 530.5h282" stroke="#F0EAF0"/><rect x="14" y="541" width="210" height="34" rx="17" fill="#FAF7F9" stroke="#E6DFE6"/><text x="30" y="562" font-size="11" fill="#8A8092">Своё слово: отель, улица, имя</text><circle cx="251" cy="558" r="17" fill="#802244"/><path d="M251 551v14M244 558h14" stroke="#fff" stroke-width="2.2" stroke-linecap="round"/><rect x="111" y="590" width="60" height="3.5" rx="1.75" fill="#1A1420" opacity=".35"/></g></g></svg>
