<svg xmlns="http://www.w3.org/2000/svg" viewBox="0 0 300 620" width="300" height="620" font-family="Roboto,'Noto Sans','Segoe UI',Arial,sans-serif"><defs><clipPath id="scr"><rect x="9" y="9" width="282" height="602" rx="31"/></clipPath><linearGradient id="top" x1="0" y1="0" x2="1" y2="1"><stop offset="0" stop-color="#802244"/><stop offset="1" stop-color="#3D0C2A"/></linearGradient><linearGradient id="md" x1="0" y1="0" x2="1" y2="1"><stop offset="0" stop-color="#802244"/><stop offset="1" stop-color="#3D0C2A"/></linearGradient><path id="mt" d="M 112.457 520 A 28.543 28.543 0 0 1 169.543 520"/><path id="mb" d="M 106.983 520 A 34.017 34.017 0 0 0 175.017 520"/></defs><rect width="300" height="620" rx="40" fill="#141016"/><g clip-path="url(#scr)"><g transform="translate(9 9)"><rect width="282" height="602" fill="#fff"/><rect width="282" height="74" fill="url(#top)"/><text x="22" y="17" font-size="10.5" fill="#fff" font-weight="600">13:05</text><g fill="#fff"><path d="M226 15 l6-6 v6z" opacity=".9"/><rect x="238" y="9" width="17" height="8" rx="2" opacity=".9"/><rect x="255.5" y="11" width="1.6" height="4" rx=".6"/></g><path d="M19 46h17M19 53h17M19 60h17" stroke="#fff" stroke-width="2.2" stroke-linecap="round"/><text x="52" y="50" font-size="15.5" fill="#fff" font-weight="700">Аптека</text><text x="52" y="65" font-size="10" fill="rgba(255,255,255,.72)">сегодня · 2 собеседника</text><g stroke="#fff" stroke-width="1.9" fill="none" stroke-linecap="round" stroke-linejoin="round"><path d="M216 47h4l2-3h8l2 3h4a2 2 0 0 1 2 2v10a2 2 0 0 1-2 2h-20a2 2 0 0 1-2-2V49a2 2 0 0 1 2-2z"/><circle cx="226" cy="54" r="3.6"/></g><g fill="#fff"><circle cx="258" cy="46" r="1.9"/><circle cx="258" cy="53" r="1.9"/><circle cx="258" cy="60" r="1.9"/></g><circle cx="24" cy="98" r="3.5" fill="#802244"/><text x="32" y="101.5" font-size="10.5" fill="#8A8092">Собеседник 1</text><text x="18" y="128" font-size="20.5" fill="#1A1420" font-weight="700">Onde fica a farmácia</text><text x="18" y="153" font-size="20.5" fill="#1A1420" font-weight="700">mais próxima?</text><text x="18" y="176" font-size="13.5" fill="#5D5566">Где ближайшая аптека?</text><rect x="18" y="190" width="78" height="24" rx="12" fill="#fff" stroke="#E6DFE6"/><text x="57.0" y="206" font-size="10.5" fill="#1A1420" text-anchor="middle">Улучшить</text><rect x="102" y="190" width="84" height="24" rx="12" fill="#fff" stroke="#E6DFE6"/><text x="144.0" y="206" font-size="10.5" fill="#1A1420" text-anchor="middle">Запомнить</text><rect x="192" y="190" width="34" height="24" rx="12" fill="#fff" stroke="#E6DFE6"/><text x="209.0" y="206" font-size="10.5" fill="#1A1420" text-anchor="middle">⋯</text><path d="M18 238h92M172 238h92" stroke="#E6DFE6"/><text x="141" y="241.5" font-size="10" fill="#8A8092" text-anchor="middle">ранее</text><rect x="16.0" y="252" width="96.0" height="42" rx="13" fill="#FAF7F9" stroke="#F0EAF0"/><text x="28" y="269" font-size="11.5" fill="#1A1420" font-weight="600">Boa tarde!</text><text x="28" y="285" font-size="10.5" fill="#5D5566">Добрый день!</text><rect x="107.6" y="302" width="158.4" height="42" rx="13" fill="#F6EAF0" stroke="#F6EAF0"/><text x="119.6" y="319" font-size="11.5" fill="#1A1420" font-weight="600">Preciso de um remédio</text><text x="119.6" y="335" font-size="10.5" fill="#5D5566">Мне нужно лекарство</text><rect x="16.0" y="352" width="145.6" height="42" rx="13" fill="#FAF7F9" stroke="#F0EAF0"/><text x="28" y="369" font-size="11.5" fill="#1A1420" font-weight="600">Para dor de cabeça?</text><text x="28" y="385" font-size="10.5" fill="#5D5566">От головной боли?</text><rect x="122.0" y="402" width="144.0" height="42" rx="13" fill="#F6EAF0" stroke="#F6EAF0"/><text x="134.0" y="419" font-size="11.5" fill="#1A1420" font-weight="600">Sim, e para febre</text><text x="134.0" y="435" font-size="10.5" fill="#5D5566">Да, и от температуры</text><rect y="512" width="282" height="90" fill="#fff"/><path d="M0 512.5h282" stroke="#F0EAF0"/><circle cx="141" cy="520" r="45.1" fill="#fff"/><circle cx="141" cy="520" r="39.6" fill="url(#md)"/><circle cx="141" cy="520" r="24.4" fill="none" stroke="#E0B878" stroke-opacity=".35" stroke-width="1"/><g transform="translate(120.93 499.93) scale(1.673)" stroke="#E0B878" stroke-width="2" fill="none" stroke-linecap="round" stroke-linejoin="round"><rect x="9" y="2" width="6" height="13" rx="3"/><path d="M19 10 L19 12 A7 7 0 0 1 5 12 L5 10"/><path d="M12 19 L12 22"/></g><text font-weight="700" font-size="7.82" letter-spacing="1.41" fill="#E0B878"><textPath href="#mt" startOffset="50%" text-anchor="middle">FALAR</textPath></text><text font-weight="700" font-size="7.82" letter-spacing="1.41" fill="#E0B878"><textPath href="#mb" startOffset="50%" text-anchor="middle">ГОВОРИ</textPath></text><g stroke="#5D5566" stroke-width="1.8" fill="none" stroke-linecap="round" stroke-linejoin="round"><rect x="34" y="530" width="22" height="15" rx="3"/><path d="M38 535h2M43 535h2M48 535h2M39 540h12"/></g><text x="45" y="562" font-size="9.5" fill="#5D5566" text-anchor="middle">Ввод</text><rect x="210" y="527" width="56" height="22" rx="11" fill="#FAF7F9" stroke="#E6DFE6"/><rect x="210" y="527" width="28" height="22" rx="11" fill="#802244"/><text x="224" y="542" font-size="9.5" fill="#fff" font-weight="700" text-anchor="middle">PT</text><text x="252" y="542" font-size="9.5" fill="#5D5566" font-weight="700" text-anchor="middle">RU</text><text x="238" y="562" font-size="9.5" fill="#5D5566" text-anchor="middle">Слушать</text><rect x="111" y="590" width="60" height="3.5" rx="1.75" fill="#1A1420" opacity=".35"/></g></g></svg>
