<svg xmlns="http://www.w3.org/2000/svg" viewBox="0 0 180 210" width="180" height="210" font-family="Roboto,'Noto Sans','Segoe UI',Arial,sans-serif"><rect width="180" height="210" fill="#EEF0F4"/><text x="12" y="13" font-size="8" fill="#1B1B1F" font-weight="600">13:05</text><g fill="#1B1B1F" opacity=".85"><path d="M147 11 l5-5 v5z"/><rect x="156" y="6" width="12" height="6" rx="1.5"/></g><rect y="18" width="180" height="80" fill="#802244"/><rect x="40" y="70" width="100" height="16" rx="8" fill="#E0B878"/><rect x="76" y="30" width="28" height="28" rx="7" fill="#3D0C2A"/><rect x="16" y="112" width="110" height="6" rx="3.0" fill="#DADDE3"/><rect x="16" y="124" width="140" height="6" rx="3.0" fill="#DADDE3"/><rect x="16" y="136" width="90" height="6" rx="3.0" fill="#DADDE3"/><rect x="16" y="148" width="120" height="6" rx="3.0" fill="#DADDE3"/><rect x="16" y="160" width="60" height="6" rx="3.0" fill="#DADDE3"/><rect width="180" height="210" fill="#000" fill-opacity=".42"/><rect x="12" y="64" width="156" height="120" rx="16" fill="#fff"/><g transform="translate(22 78) scale(0.0508)"><rect width="512" height="512" rx="112" fill="#802244"/><path d="M262 370c0 55-75 70-100 20-20-40-10-70-55-110-60-55-30-200 90-200 80 0 100 80 150 80 60 0 70-40 70-60" fill="none" stroke="#E0B878" stroke-width="30" stroke-linecap="round"/><circle cx="420" cy="100" r="28" fill="#E0B878"/><circle cx="170" cy="262" r="24" fill="#6FE0BC"/><path d="M215 218a60 60 0 0 1 0 90" fill="none" stroke="#6FE0BC" stroke-width="16" stroke-linecap="round"/></g><text x="56" y="96" font-size="12" fill="#1B1B1F" font-weight="700">Falar</text><text x="22" y="128" font-size="10.5" fill="#1B1B1F">Установить приложение?</text><text x="84" y="166" font-size="10" fill="#0B57D0" font-weight="700" text-anchor="end">Отмена</text><text x="158" y="166" font-size="10" fill="#0B57D0" font-weight="700" text-anchor="end">Установить</text><rect x="90" y="151" width="74" height="23" rx="11.5" fill="none" stroke="#E0B878" stroke-width="3.2"/><circle cx="145.5" cy="175.0" r="10" fill="#802244" fill-opacity=".2"/><circle cx="145.5" cy="175.0" r="4.5" fill="#802244" fill-opacity=".85" stroke="#fff" stroke-width="1.2"/></svg>
